# xmcd CD database file
#
# Track frame offsets:
#	150
#	19517
#	36525
#	52210
#	63108
#	76967
#	88145
#	104691
#	113144
#	136061
#	153354
#	165308
#	178500
#	200313
#
# Disc length: 2755 seconds
#
# Revision: 1
# Processed by: cddbd v1.5.2PL0 Copyright (c) Steve Scherf et al.
# Submitted via: CDex 1.51
#
DISCID=b20ac10e
DTITLE=嘉門達夫 - 言葉のチカラ！
DYEAR=2007
DGENRE=コミックソング
TTITLE0=続･アニメ替え唄スーパーメドレー
TTITLE1=ンなアホな！ 2
TTITLE2=パンダだわ ～神田川～
TTITLE3=新･あわんあわん
TTITLE4=哀歌 ～エレジー～ 2007
TTITLE5=新･どんなんやねん
TTITLE6=大人の階段登る時
TTITLE7=新･さーて来週のアワビさんは
TTITLE8=新･ホラー
TTITLE9=22才の元カレ ～22才の別れ～
TTITLE10=新･新･この中にひとり
TTITLE11=言うだけ番長 2007
TTITLE12=夢･ドリーム 2
TTITLE13=まどかちゃん
EXTD=YEAR: 2007
EXTT0=
EXTT1=
EXTT2=
EXTT3=
EXTT4=
EXTT5=
EXTT6=
EXTT7=
EXTT8=
EXTT9=
EXTT10=
EXTT11=
EXTT12=
EXTT13=
PLAYORDER=
